<?xml version="1.0" encoding="UTF-8" standalone="no"?>
<!DOCTYPE svg PUBLIC "-//W3C//DTD SVG 1.1//EN" "http://www.w3.org/Graphics/SVG/1.1/DTD/svg11.dtd">
<svg width="100%" height="100%" viewBox="0 0 483 483" version="1.1" xmlns="http://www.w3.org/2000/svg" xmlns:xlink="http://www.w3.org/1999/xlink" xml:space="preserve" xmlns:serif="http://www.serif.com/" style="fill-rule:evenodd;clip-rule:evenodd;stroke-linejoin:round;stroke-miterlimit:2;">
    <g transform="matrix(0.1,0,0,-0.1,-193.121,833)">
        <path d="M2965,8314C2484,8228 2097,7872 1975,7404C1931,7235 1928,7136 1933,5825C1936,4621 1937,4593 1957,4500C2068,3999 2424,3642 2930,3524C2996,3509 3080,3506 3621,3503C4181,3499 4239,3500 4254,3515C4269,3530 4270,3723 4270,5911C4270,7533 4267,8297 4260,8311C4250,8329 4233,8330 3647,8329C3171,8328 3028,8325 2965,8314ZM3870,7940L3870,3888L3463,3893C3088,3897 3048,3899 2973,3918C2651,4001 2412,4249 2345,4572C2323,4673 2323,7161 2344,7260C2404,7541 2599,7774 2862,7879C2994,7932 3055,7938 3483,7939L3870,7940Z" style="fill-rule:nonzero;"/>
    </g>
    <g transform="matrix(0.1,0,0,-0.1,-193.121,833)">
        <path d="M3051,7329C2988,7317 2892,7269 2841,7224C2736,7133 2684,7004 2692,6852C2696,6773 2701,6752 2733,6688C2780,6591 2851,6520 2948,6472C3015,6439 3032,6435 3119,6432C3198,6429 3226,6432 3279,6450C3496,6523 3627,6734 3590,6950C3547,7207 3303,7379 3051,7329Z" style="fill-rule:nonzero;"/>
    </g>
    <g transform="matrix(0.1,0,0,-0.1,-193.121,833)">
        <path d="M4757,8323C4753,8320 4750,7236 4750,5914C4750,3733 4751,3512 4766,3506C4793,3496 5569,3500 5665,3510C6071,3556 6429,3803 6624,4170C6649,4217 6682,4296 6699,4345C6762,4533 6760,4483 6760,5920C6760,7067 6758,7238 6744,7311C6645,7832 6248,8225 5726,8315C5656,8327 5548,8330 5200,8330C4960,8330 4760,8327 4757,8323ZM5825,6145C5981,6104 6109,5985 6161,5833C6194,5739 6193,5601 6160,5515C6099,5357 5979,5246 5825,5205C5575,5140 5309,5291 5236,5539C5214,5615 5215,5743 5240,5821C5315,6066 5575,6210 5825,6145Z" style="fill-rule:nonzero;"/>
    </g>
</svg>
