<?xml version="1.0" encoding="UTF-8" standalone="no"?>
<!DOCTYPE svg PUBLIC "-//W3C//DTD SVG 1.1//EN" "http://www.w3.org/Graphics/SVG/1.1/DTD/svg11.dtd">
<svg width="100%" height="100%" viewBox="0 0 97 43" version="1.1" xmlns="http://www.w3.org/2000/svg" xmlns:xlink="http://www.w3.org/1999/xlink" xml:space="preserve" xmlns:serif="http://www.serif.com/" style="fill-rule:evenodd;clip-rule:evenodd;stroke-linejoin:round;stroke-miterlimit:2;">
    <g transform="matrix(1,0,0,1,-6.4,-5.8)">
        <path d="M79.7,28.2L83.9,22.4C82.5,22.1 81.2,21.5 80,20.7C78.8,19.8 78.2,18.4 78.3,16.9C78.2,15.4 79,14 80.2,13.2C81.8,12.2 83.7,11.8 85.6,11.9C93,11.9 94.9,15.8 96.2,17.4L100.2,11.9C99.5,10.8 98.7,9.8 97.7,9C95,6.9 90.9,5.8 85.5,5.8C80.8,5.8 77.1,6.8 74.4,8.9C71.8,10.9 70.3,14 70.4,17.3C70.4,22.8 73.5,26.3 79.7,28.2ZM100.1,27.9C98.2,26.2 95.4,25 91.5,24L87.2,29.9C89.4,30.3 91.5,31.2 93.4,32.5C94.6,33.3 95.3,34.7 95.2,36.2C95.3,37.9 94.5,39.6 93.1,40.6C91.3,41.7 89.1,42.3 87,42.1C80.8,42.1 77.9,40.1 75,34.7L70.7,40.5C71.5,42.1 72.6,43.4 73.9,44.5C76.9,47 81.2,48.2 86.7,48.2C91.9,48.2 95.9,47.1 98.8,44.9C101.7,42.7 103.3,39.3 103.1,35.7C103.5,32.8 102.3,29.9 100.1,27.9ZM63.5,47.3L61.7,47.3L61.7,6.7L63.5,6.7L63.5,47.3ZM11.4,6.5C12,6.5 12.5,6.7 12.9,7.2C13.6,8.5 13.6,10 12.8,11.2C12.4,11.7 11.7,12 11.1,11.9L11.1,10.7C11.5,10.7 11.9,10.6 12.1,10.3C12.3,9.9 12.4,9.5 12.4,9.1C12.4,8.8 12.3,8.4 12.2,8.1C12,7.9 11.8,7.7 11.5,7.8C11.3,7.8 11,7.9 10.9,8.1C10.7,8.4 10.6,8.8 10.5,9.2L10.4,9.8C10.3,10.4 10.1,10.9 9.7,11.4C9.4,11.8 8.9,11.9 8.4,11.9C7.9,11.9 7.4,11.7 7,11.3C6.7,10.6 6.5,10 6.5,9.3C6.5,8.6 6.6,7.9 7.1,7.3C7.5,6.8 8.1,6.6 8.7,6.6L8.7,7.8C8.3,7.9 8,8 7.8,8.3C7.6,8.6 7.5,9 7.6,9.3C7.6,9.6 7.7,9.9 7.8,10.2C7.9,10.4 8.2,10.5 8.4,10.5C8.6,10.5 8.9,10.4 9,10.2C9.2,9.9 9.3,9.6 9.4,9.2L9.5,8.6C9.5,8 9.8,7.5 10.1,7C10.5,6.6 10.9,6.4 11.4,6.5ZM10.1,42.4C9.7,42.9 9.5,43.5 9.4,44.1L9.3,44.7C9.2,45.1 9.1,45.4 8.9,45.7C8.8,45.9 8.5,46 8.3,46C8.1,46 7.8,45.9 7.7,45.7C7.5,45.4 7.5,45.1 7.5,44.8C7.5,44.4 7.6,44 7.8,43.7C8,43.5 8.3,43.3 8.6,43.3L8.6,42.1C8,42.1 7.4,42.4 7,42.8C6.6,43.4 6.4,44.1 6.4,44.8C6.4,45.4 6.5,46.1 6.9,46.6C7.2,47 7.7,47.3 8.3,47.2C8.8,47.2 9.3,47 9.6,46.7C10,46.2 10.2,45.7 10.3,45.1L10.4,44.5C10.5,44.1 10.6,43.8 10.8,43.4C10.9,43.2 11.2,43.1 11.4,43.1C11.7,43.1 11.9,43.2 12.1,43.4C12.3,43.7 12.4,44 12.3,44.4C12.3,44.8 12.2,45.2 12,45.6C11.8,45.9 11.4,46 11,46L11,47.2C11.7,47.2 12.3,47 12.7,46.5C13.5,45.3 13.5,43.7 12.8,42.5C12.4,42 11.9,41.8 11.3,41.8C10.9,41.8 10.4,42 10.1,42.4ZM13.3,26.3L13.3,27.6C13.1,27.7 12.8,27.8 12.5,27.8L11.8,27.8C11.5,27.8 11.2,27.9 11,28.1C10.8,28.3 10.7,28.6 10.8,28.9L10.8,30.5L13.4,30.5L13.4,31.8L6.7,31.8L6.7,28.4L6.7,28.5C6.7,28.1 6.8,27.6 7.1,27.2L7,27.3C7,27.2 7.1,27.1 7.2,27.1C7.5,26.7 8,26.5 8.6,26.5C9.3,26.5 10,26.9 10.2,27.6C10.3,27.3 10.5,27.1 10.7,26.9C11,26.7 11.3,26.7 11.6,26.7L12.6,26.6C12.8,26.5 13,26.5 13.3,26.3ZM8.7,27.8C8.4,27.8 8.2,27.9 8,28.1C7.8,28.3 7.7,28.6 7.8,28.9L7.8,30.5L9.8,30.5L9.8,28.8C9.8,28.5 9.7,28.2 9.5,28C9.2,27.8 9,27.7 8.7,27.8ZM6.7,23.7L13.3,23.7L13.3,22.4L6.7,22.4L6.7,23.7ZM7.8,14.5L6.7,14.5L6.7,19.4L13.3,19.4L13.3,14.5L12.2,14.5L12.2,18.1L10.5,18.1L10.5,14.8L9.4,14.8L9.4,18.1L7.8,18.1L7.8,14.5ZM7.8,34.5L6.7,34.5L6.7,39.4L13.3,39.4L13.3,34.5L12.2,34.5L12.2,38.1L10.5,38.1L10.5,34.8L9.4,34.8L9.4,38.1L7.8,38.1L7.8,34.5ZM16.1,47.3L24.9,47.3L31.5,38.2L27.1,32.2L16.1,47.3ZM54.5,6.7L45.7,6.7L40.3,14.2L44.7,20.2L54.5,6.7ZM26.1,6.7L17.3,6.7L47,47.3L55.8,47.3L26.1,6.7Z" style="fill-rule:nonzero;"/>
    </g>
</svg>
